<?xml version="1.0" encoding="UTF-8" standalone="no"?>
<!-- Uploaded to: SVG Repo, www.svgrepo.com, Generator: SVG Repo Mixer Tools -->

<svg
   fill="#000000"
   version="1.1"
   id="Layer_1"
   width="32"
   height="32"
   viewBox="0 0 0.8 0.8"
   enable-background="new 0 0 20 20"
   xml:space="preserve"
   sodipodi:docname="favicon.svg"
   inkscape:version="1.4.3 (0d15f75, 2025-12-25)"
   inkscape:export-filename="favicon.svg"
   inkscape:export-xdpi="72"
   inkscape:export-ydpi="72"
   xmlns:inkscape="http://www.inkscape.org/namespaces/inkscape"
   xmlns:sodipodi="http://sodipodi.sourceforge.net/DTD/sodipodi-0.dtd"
   xmlns="http://www.w3.org/2000/svg"
   xmlns:svg="http://www.w3.org/2000/svg"><defs
   id="defs3" /><sodipodi:namedview
   id="namedview3"
   pagecolor="#ffffff"
   bordercolor="#000000"
   borderopacity="0.25"
   inkscape:showpageshadow="2"
   inkscape:pageopacity="0.0"
   inkscape:pagecheckerboard="0"
   inkscape:deskcolor="#d1d1d1"
   inkscape:zoom="17.7"
   inkscape:cx="15.903955"
   inkscape:cy="18.163842"
   inkscape:window-width="1920"
   inkscape:window-height="1129"
   inkscape:window-x="2552"
   inkscape:window-y="235"
   inkscape:window-maximized="1"
   inkscape:current-layer="Layer_1" />


<g
   id="g3"
   transform="scale(0.03997175,0.04004237)"><path
     d="M 19,7 C 18.4,7 18,6.6 18,6 18,3.8 16.2,2 14,2 12.7,2 11.6,2.6 10.8,3.6 10.4,4.1 9.6,4.1 9.2,3.6 8.4,2.6 7.3,2 6,2 3.8,2 2,3.8 2,6 2,6.6 1.6,7 1,7 0.4,7 0,6.6 0,6 0,2.7 2.7,0 6,0 7.5,0 8.9,0.6 10,1.5 11.1,0.5 12.5,0 14,0 c 3.3,0 6,2.7 6,6 0,0.6 -0.4,1 -1,1 z"
     id="path1"
     style="fill:#0000ff" /><path
     d="M 9.3,19.7 C 9.2,19.6 6.1,16.9 3.6,13.6 3.3,13.2 3.3,12.5 3.8,12.2 4.2,11.9 4.9,11.9 5.2,12.4 7,14.7 9,16.7 10,17.7 c 1,-1 3.1,-3 4.9,-5.3 0.3,-0.4 1,-0.5 1.4,-0.2 0.4,0.3 0.5,1 0.2,1.4 -2.6,3.3 -5.6,6 -5.8,6.1 -0.4,0.4 -1,0.4 -1.4,0 z"
     id="path2"
     style="fill:#0000ff" /><path
     d="m 11,14 c 0,0 0,0 0,0 -0.4,0 -0.7,-0.2 -0.9,-0.6 L 7.9,9 6.9,10.6 C 6.6,10.8 6.3,11 6,11 H 1 C 0.4,11 0,10.6 0,10 0,9.4 0.4,9 1,9 H 5.5 L 7.2,6.4 C 7.4,6.1 7.7,6 8.1,6 8.5,6 8.8,6.2 8.9,6.6 l 2.2,4.5 1,-1.6 C 12.4,9.2 12.7,9 13,9 h 6 c 0.6,0 1,0.4 1,1 0,0.6 -0.4,1 -1,1 h -5.5 l -1.7,2.6 C 11.6,13.8 11.3,14 11,14 Z"
     id="path3"
     style="fill:#ffcc00" /></g>
</svg>
